<svg id="Group_8" data-name="Group 8" xmlns="http://www.w3.org/2000/svg" viewBox="0 0 144.657 75.577">
  <defs>
    <style>
      .cls-1 {
        fill: #e11f26;
      }
    </style>
  </defs>
  <g id="bottom_1_" transform="translate(0 36.491)">
    <g id="Group_1" data-name="Group 1">
      <path id="Path_1" data-name="Path 1" class="cls-1" d="M26.889,271.711a3.093,3.093,0,0,0-1.1,1.141l-.918,1.611a1.75,1.75,0,0,0-.23.805q0,.806.885.805,1.179,0,1.18.57,0,.5-.853.805a3.605,3.605,0,0,1-1.213.234,2.619,2.619,0,0,0-1.393.47,3.093,3.093,0,0,0-1.1,1.141l-16.09,28.55c-.328.581-.678.873-1.049.873a.575.575,0,0,1-.491-.3L.2,300.831a1.53,1.53,0,0,1-.2-.839,3.645,3.645,0,0,1,.491-1.812L15.7,271.241a3.142,3.142,0,0,1,1.081-1.141,2.541,2.541,0,0,1,1.376-.47H29.167q1.179,0,1.18.57,0,.5-.853.805a3.61,3.61,0,0,1-1.213.236A2.625,2.625,0,0,0,26.889,271.711Z" transform="translate(0 -269.63)"/>
    </g>
    <path id="Path_2" data-name="Path 2" class="cls-1" d="M180.31,269.64h14.709l-2.079,3.346H180.31V269.64Z" transform="translate(-155.907 -269.639)"/>
    <path id="Path_3" data-name="Path 3" class="cls-1" d="M157.5,308.77h14.709l-2.08,3.346H157.5V308.77Z" transform="translate(-136.184 -303.473)"/>
  </g>
  <g id="top_1_" transform="translate(4.038 5.874)">
    <g id="Group_2" data-name="Group 2">
      <path id="Path_4" data-name="Path 4" class="cls-1" d="M56.729,45.48a3.093,3.093,0,0,0-1.1,1.141l-.918,1.611a1.75,1.75,0,0,0-.23.805q0,.806.885.805,1.179,0,1.18.57,0,.5-.853.805a3.61,3.61,0,0,1-1.213.235,2.619,2.619,0,0,0-1.393.47,3.093,3.093,0,0,0-1.1,1.141L35.9,81.611c-.328.581-.678.873-1.049.873a.575.575,0,0,1-.491-.3L30.036,74.6a1.53,1.53,0,0,1-.2-.839,3.645,3.645,0,0,1,.491-1.812L45.537,45.011a3.142,3.142,0,0,1,1.081-1.141,2.541,2.541,0,0,1,1.376-.47H59.005q1.179,0,1.18.57,0,.5-.853.805a3.61,3.61,0,0,1-1.213.235A2.618,2.618,0,0,0,56.729,45.48Z" transform="translate(-29.84 -43.4)"/>
    </g>
    <path id="Path_5" data-name="Path 5" class="cls-1" d="M210.15,43.41h14.709l-2.08,3.344H210.15V43.41Z" transform="translate(-185.747 -43.409)"/>
    <path id="Path_6" data-name="Path 6" class="cls-1" d="M187.33,82.54h14.709l-2.079,3.344H187.33V82.54Z" transform="translate(-166.016 -77.243)"/>
  </g>
  <g id="Group_3" data-name="Group 3" transform="translate(18.928 17.239)">
    <path id="Path_7" data-name="Path 7" class="cls-1" d="M171.486,127.38q.851,0,.85.767a1.643,1.643,0,0,1-.221.767l-7.867,13.823a2.971,2.971,0,0,1-1.054,1.088,2.485,2.485,0,0,1-1.306.448H140.741q-.881,0-.881-.767a1.652,1.652,0,0,1,.221-.767l3.493-6.144a3.282,3.282,0,0,1,1.071-1.088,2.443,2.443,0,0,1,1.322-.448h10.573a2.475,2.475,0,0,0,1.329-.447,3.294,3.294,0,0,0,1.076-1.085l1.739-3.063a1.823,1.823,0,0,0,.2-.774q0-.773-.85-.774a2.4,2.4,0,0,0-1.309.452,3.285,3.285,0,0,0-1.06,1.1L156.787,132a2.963,2.963,0,0,1-1.057,1.077,2.517,2.517,0,0,1-1.309.443H146.85q-.883,0-.882-.767a1.652,1.652,0,0,1,.221-.767l1.762-3.072A2.96,2.96,0,0,1,149,127.829a2.52,2.52,0,0,1,1.337-.448h21.144Zm-15.174,10.747a1.623,1.623,0,0,0,.226-.766q0-.765-.881-.766a2.446,2.446,0,0,0-1.322.448,3,3,0,0,0-1.038,1.088l-1.762,3.072a1.652,1.652,0,0,0-.221.767q0,.767.85.767a2.524,2.524,0,0,0,1.338-.448,2.961,2.961,0,0,0,1.056-1.087Z" transform="translate(-139.86 -127.38)"/>
  </g>
  <g id="Group_4" data-name="Group 4" transform="translate(45.111 5.562)">
    <path id="Path_8" data-name="Path 8" class="cls-1" d="M365.158,52.525q.855,0,.855.784a1.714,1.714,0,0,1-.222.784l-7.92,14.1a3,3,0,0,1-1.061,1.11,2.483,2.483,0,0,1-1.314.457h-21.29q-.887,0-.886-.784a1.7,1.7,0,0,1,.222-.784l14.73-26.246q.475-.849.983-.849a.554.554,0,0,1,.475.294l4.213,7.377a1.745,1.745,0,0,1,.189.881,3.044,3.044,0,0,1-.38,1.5,1.234,1.234,0,0,0-.189.62q0,.751.95.751h10.646Zm-10.9,3.133a1.714,1.714,0,0,0,.222-.784c0-.522-.286-.784-.854-.784a2.44,2.44,0,0,0-1.329.457,3.325,3.325,0,0,0-1.076,1.111l-6.146,10.969a1.67,1.67,0,0,0-.226.782q0,.784.855.782a2.51,2.51,0,0,0,1.347-.457,3.007,3.007,0,0,0,1.062-1.11Z" transform="translate(-333.32 -41.1)"/>
  </g>
  <path id="Path_9" data-name="Path 9" class="cls-1" d="M534.92,34.134h4.27l12.5-15.7,3.573,3.036,9.715-10.337,15.075,19.046,3.572-3.695,5.271,7.653h14.2L585.676,12.141l-3.66,4.266L569.012,0,555.876,16.452,552.3,12.141Z" transform="translate(-462.525)"/>
  <g id="Group_5" data-name="Group 5" transform="translate(31.914 36.857)">
    <path id="Path_10" data-name="Path 10" class="cls-1" d="M267.184,272.35q.842,0,.843.767a1.679,1.679,0,0,1-.218.767L260,287.691a2.943,2.943,0,0,1-1.046,1.087,2.448,2.448,0,0,1-1.3.448H236.684q-.875,0-.874-.767a1.678,1.678,0,0,1,.218-.767l7.8-13.806a2.953,2.953,0,0,1,1.046-1.087,2.5,2.5,0,0,1,1.326-.448Zm-10.739,3.068a1.67,1.67,0,0,0,.218-.767q0-.767-.843-.767a2.4,2.4,0,0,0-1.309.448,3.272,3.272,0,0,0-1.06,1.088l-6.056,10.738a1.633,1.633,0,0,0-.223.766q0,.765.843.766a2.487,2.487,0,0,0,1.326-.448,2.943,2.943,0,0,0,1.046-1.087Z" transform="translate(-235.81 -272.347)"/>
    <path id="Path_11" data-name="Path 11" class="cls-1" d="M463.245,272.333q.843,0,.843.767a1.678,1.678,0,0,1-.218.767l-7.8,13.806a2.943,2.943,0,0,1-1.046,1.087,2.448,2.448,0,0,1-1.3.448h-20.98q-.875,0-.874-.767a1.679,1.679,0,0,1,.218-.767l7.8-13.806a2.953,2.953,0,0,1,1.046-1.087,2.5,2.5,0,0,1,1.326-.448h7.492q.843,0,.843.767a1.684,1.684,0,0,1-.215.767l-6.931,12.271a1.646,1.646,0,0,0-.222.766q0,.765.843.766a2.483,2.483,0,0,0,1.326-.448,2.954,2.954,0,0,0,1.046-1.087l6.931-12.271a2.953,2.953,0,0,1,1.046-1.087,2.5,2.5,0,0,1,1.326-.448h7.494Z" transform="translate(-405.336 -272.33)"/>
    <path id="Path_12" data-name="Path 12" class="cls-1" d="M657.7,272.341q.842,0,.843.767a1.678,1.678,0,0,1-.218.767l-1.749,3.068a2.943,2.943,0,0,1-1.046,1.087,2.448,2.448,0,0,1-1.3.448h-7.492q-.875,0-.874-.767a1.678,1.678,0,0,1,.218-.767l.874-1.533a1.67,1.67,0,0,0,.218-.767q0-.767-.843-.767a2.426,2.426,0,0,0-1.313.447,3.273,3.273,0,0,0-1.062,1.085l-6.95,12.26a2.958,2.958,0,0,1-1.043,1.1,2.434,2.434,0,0,1-1.292.451H627.2q-.873,0-.872-.767a1.664,1.664,0,0,1,.219-.767l7.8-13.806a2.953,2.953,0,0,1,1.046-1.087,2.5,2.5,0,0,1,1.326-.448H657.7Z" transform="translate(-573.478 -272.339)"/>
    <path id="Path_13" data-name="Path 13" class="cls-1" d="M839.347,278.478q-.875,0-.874-.767a1.677,1.677,0,0,1,.218-.767l.874-1.533a1.67,1.67,0,0,0,.218-.767q0-.767-.843-.767a2.427,2.427,0,0,0-1.313.447,3.275,3.275,0,0,0-1.062,1.085l-1.74,3.055a1.653,1.653,0,0,0-.225.774c0,.517.291.774.874.774h10.489c.582,0,.874.256.874.767a1.516,1.516,0,0,1-.25.767l-3.465,6.136a2.943,2.943,0,0,1-1.046,1.087,2.448,2.448,0,0,1-1.3.448H819.8q-.875,0-.874-.767a1.666,1.666,0,0,1,.219-.767l1.749-3.068a2.954,2.954,0,0,1,1.046-1.087,2.5,2.5,0,0,1,1.326-.448h7.492q.842,0,.843.767a1.664,1.664,0,0,1-.219.767l-.874,1.533a1.661,1.661,0,0,0-.218.767q0,.767.843.767a2.5,2.5,0,0,0,1.328-.447,2.94,2.94,0,0,0,1.046-1.085l1.749-3.068a1.674,1.674,0,0,0,.217-.767q0-.767-.874-.767H824.113q-.842,0-.843-.767a1.679,1.679,0,0,1,.218-.767l3.465-6.136A2.953,2.953,0,0,1,828,272.788a2.5,2.5,0,0,1,1.326-.448H850.3q.842,0,.843.767a1.679,1.679,0,0,1-.218.767l-1.749,3.068a2.944,2.944,0,0,1-1.046,1.087,2.449,2.449,0,0,1-1.3.448Z" transform="translate(-740.012 -272.339)"/>
  </g>
  <g id="Group_6" data-name="Group 6" transform="translate(23.922 56.707)">
    <path id="Path_14" data-name="Path 14" class="cls-1" d="M183.455,423.924c-.092,0-.134-.028-.134-.087a.307.307,0,0,1,.022-.108l.8-1.823-2.78,1.823a.976.976,0,0,1-.521.195h-.409a.479.479,0,0,1-.387-.195l-1.429-1.823-.8,1.823a.285.285,0,0,1-.275.195h-.655c-.092,0-.134-.028-.134-.087a.22.22,0,0,1,.028-.108l1.971-4.532a.287.287,0,0,1,.275-.187h.556a.434.434,0,0,1,.365.187l1.971,3.055,4.856-3.055a1.167,1.167,0,0,1,.577-.187h.563c.084,0,.127.028.127.093a.159.159,0,0,1-.022.093l-1.977,4.532a.277.277,0,0,1-.268.195Z" transform="translate(-176.76 -419.009)"/>
    <path id="Path_15" data-name="Path 15" class="cls-1" d="M260.079,423.933a.318.318,0,0,1-.3-.143l-1.464-2.889-3.1,2.183h3.2c.092,0,.127.037.127.093a.219.219,0,0,1-.028.1l-.2.461a.283.283,0,0,1-.268.195h-4.695c-.064,0-.092-.028-.092-.087s.042-.1.112-.152l6.391-4.539a.64.64,0,0,1,.359-.137h.457a.257.257,0,0,1,.253.137l2.379,4.524a.384.384,0,0,1,.014.087c0,.087-.07.165-.225.165Z" transform="translate(-242.898 -419.017)"/>
    <path id="Path_16" data-name="Path 16" class="cls-1" d="M334.307,423.924c-.084,0-.127-.028-.127-.087a.308.308,0,0,1,.022-.108l1.977-4.532a.278.278,0,0,1,.268-.187h5.659a1.412,1.412,0,0,1,1.506,1.535,3.768,3.768,0,0,1-3.646,3.379Zm6.123-2.948a2.184,2.184,0,0,0,.225-.757c0-.273-.189-.367-.549-.367h-1.429l-1.394,3.221H338.7c.563,0,.957-.338,1.386-1.311Z" transform="translate(-312.875 -419.009)"/>
    <path id="Path_17" data-name="Path 17" class="cls-1" d="M411.34,423.924a1.428,1.428,0,0,1-1.5-1.556,3.741,3.741,0,0,1,3.638-3.358h4.92c.084,0,.127.028.127.093a.237.237,0,0,1-.022.093l-.2.462a.285.285,0,0,1-.275.195h-3.272c-.6,0-.937.238-1.315,1.123l-.338.785a2.528,2.528,0,0,0-.268.9c0,.3.183.41.521.41h3.3c.084,0,.127.037.127.093a.219.219,0,0,1-.028.1l-.2.461a.285.285,0,0,1-.275.195Zm2.485-2.255c-.084,0-.127-.028-.127-.087a.2.2,0,0,1,.028-.1l.2-.468a.287.287,0,0,1,.275-.187h3.358c.1,0,.148.022.148.072a.233.233,0,0,1-.014.058l-.26.583a.232.232,0,0,1-.24.13Z" transform="translate(-378.295 -419.009)"/>
    <path id="Path_18" data-name="Path 18" class="cls-1" d="M493.117,423.924c-.084,0-.127-.028-.127-.087a.307.307,0,0,1,.022-.108l1.977-4.532a.284.284,0,0,1,.268-.187h2.421c.092,0,.134.028.134.093a.171.171,0,0,1-.028.093l-1.971,4.532a.283.283,0,0,1-.268.195Z" transform="translate(-450.192 -419.009)"/>
    <path id="Path_19" data-name="Path 19" class="cls-1" d="M532.056,423.933a1.373,1.373,0,0,1-.7-.143l-4.715-2.233-.943,2.183a.277.277,0,0,1-.268.195h-.908c-.092,0-.134-.028-.134-.087a.219.219,0,0,1,.028-.108l1.971-4.532a.286.286,0,0,1,.275-.187h.8a1.274,1.274,0,0,1,.69.137l4.37,2.14.915-2.09a.278.278,0,0,1,.268-.187h.908c.084,0,.134.028.134.093a.171.171,0,0,1-.029.093l-1.97,4.532a.285.285,0,0,1-.275.195h-.422Z" transform="translate(-477.342 -419.017)"/>
    <path id="Path_20" data-name="Path 20" class="cls-1" d="M631.151,423.933c-.064,0-.106-.022-.106-.05a.108.108,0,0,1,.014-.043l1.724-3.978h-2.054c-.07,0-.1-.015-.1-.05v-.028l.288-.67a.18.18,0,0,1,.176-.093h6.912c.064,0,.1.015.1.05,0,.015-.007.028-.007.043l-.288.67c-.028.058-.084.08-.169.08h-2.069l-1.724,3.978a.163.163,0,0,1-.169.093h-2.527Z" transform="translate(-569.204 -419.017)"/>
    <path id="Path_21" data-name="Path 21" class="cls-1" d="M684.13,423.924c-.092,0-.134-.028-.134-.087a.219.219,0,0,1,.028-.108l.893-2.061h-2.111l-.9,2.061a.274.274,0,0,1-.26.195h-2.421c-.084,0-.134-.028-.134-.087a.219.219,0,0,1,.028-.108L681.1,419.2a.278.278,0,0,1,.268-.187h2.421c.077,0,.127.028.127.093a.171.171,0,0,1-.029.093l-.711,1.628h2.118l.7-1.628a.287.287,0,0,1,.275-.187h2.414c.084,0,.127.028.127.093a.237.237,0,0,1-.022.093l-1.977,4.532a.275.275,0,0,1-.26.195Z" transform="translate(-611.106 -419.009)"/>
    <path id="Path_22" data-name="Path 22" class="cls-1" d="M752.87,423.924a1.428,1.428,0,0,1-1.5-1.556,3.741,3.741,0,0,1,3.638-3.358h4.92c.084,0,.127.028.127.093a.238.238,0,0,1-.022.093l-.2.462a.285.285,0,0,1-.275.195h-3.272c-.6,0-.937.238-1.315,1.123l-.338.785a2.53,2.53,0,0,0-.268.9c0,.3.183.41.521.41h3.3c.084,0,.127.037.127.093a.219.219,0,0,1-.028.1l-.2.461a.285.285,0,0,1-.275.195Zm2.485-2.255c-.084,0-.127-.028-.127-.087a.2.2,0,0,1,.028-.1l.2-.468a.287.287,0,0,1,.275-.187h3.358c.1,0,.148.022.148.072a.238.238,0,0,1-.013.058l-.26.583a.232.232,0,0,1-.24.13Z" transform="translate(-673.603 -419.009)"/>
    <path id="Path_23" data-name="Path 23" class="cls-1" d="M840.241,423.924c-1.2,0-1.711-.418-1.711-1.138a3,3,0,0,1,.288-1.125L839.9,419.2a.278.278,0,0,1,.268-.187h2.626c.092,0,.134.028.134.093a.171.171,0,0,1-.028.093l-1.069,2.465a2.18,2.18,0,0,0-.211.807c0,.39.233.6.746.6h1.21a2,2,0,0,0,1.788-1.412l1.069-2.465a.284.284,0,0,1,.268-.187h.851c.084,0,.127.028.127.093a.237.237,0,0,1-.022.093l-1.077,2.465a3.644,3.644,0,0,1-3.378,2.263Z" transform="translate(-748.967 -419.009)"/>
    <path id="Path_24" data-name="Path 24" class="cls-1" d="M900.427,423.915c-.084,0-.127-.028-.127-.087a.307.307,0,0,1,.022-.108l.2-.462a.285.285,0,0,1,.275-.195h4.018l-2.611-1.542a.953.953,0,0,1-.549-.836A1.945,1.945,0,0,1,903.7,419h5.188c.092,0,.134.028.134.093a.172.172,0,0,1-.028.093l-.2.462a.291.291,0,0,1-.275.195h-3.9l2.611,1.542a.95.95,0,0,1,.549.843,1.935,1.935,0,0,1-2.041,1.686h-5.313Z" transform="translate(-802.377 -419)"/>
    <path id="Path_25" data-name="Path 25" class="cls-1" d="M962.508,423.933a.318.318,0,0,1-.3-.143L960.74,420.9l-3.1,2.183h3.2c.092,0,.127.037.127.093a.219.219,0,0,1-.029.1l-.2.461a.283.283,0,0,1-.268.195h-4.693c-.064,0-.092-.028-.092-.087s.042-.1.112-.152l6.391-4.539a.641.641,0,0,1,.359-.137H963a.257.257,0,0,1,.253.137l2.379,4.524a.387.387,0,0,1,.013.087c0,.087-.07.165-.225.165Z" transform="translate(-850.262 -419.017)"/>
  </g>
  <g id="Group_7" data-name="Group 7" transform="translate(140.624 51.677)">
    <path id="Path_26" data-name="Path 26" class="cls-1" d="M1039.611,382.25h-.551v-.39h1.578v.39h-.56v1.663h-.466V382.25Z" transform="translate(-1039.06 -381.857)"/>
    <path id="Path_27" data-name="Path 27" class="cls-1" d="M1053.891,383.109c-.009-.246-.018-.545-.018-.843h-.009c-.064.263-.149.555-.229.794l-.25.8h-.363l-.219-.8c-.068-.241-.137-.533-.185-.8h-.005c-.012.277-.022.594-.036.85l-.036.78h-.429l.131-2.053h.619l.2.685c.064.238.129.494.173.734h.01c.058-.238.129-.509.195-.738l.219-.682h.606l.112,2.053h-.453Z" transform="translate(-1050.344 -381.84)"/>
  </g>
</svg>
